<svg xmlns="http://www.w3.org/2000/svg" width="200" height="200" viewBox="0 0 841.9 595.3">
    <g fill="#61DAFB">
        <path d="M666.3 296.5c0-32.5-40.7-63.3-103.1-82.4 14.4-63.6 8-114.2-20.2-130.4-6.5-3.8-14.1-5.6-22.4-5.6v22.3c4.6 0 8.3.9 11.4 2.6 13.6 7.8 19.5 37.5 14.9 75.7-1.1 9.4-2.9 19.3-5.1 29.4-19.6-4.8-41-8.5-63.5-10.9-13.5-18.5-27.5-35.3-41.6-50 32.6-30.3 63.2-46.9 84-46.9V78c-27.5 0-63.5 19.6-99.9 53.6-36.4-33.8-72.4-53.2-99.9-53.2v22.3c20.7 0 51.4 16.5 84 46.6-14 14.7-28 31.4-41.3 49.9-22.6 2.4-44 6.1-63.6 11-2.3-10-4-19.7-5.2-29-4.7-38.2 1.1-67.9 14.6-75.8 3-1.8 6.9-2.6 11.5-2.6V78.5c-8.4 0-16 1.8-22.6 5.6-28.1 16.2-34.4 66.7-19.9 130.1-62.2 19.2-102.7 49.9-102.7 82.3 0 32.5 40.7 63.3 103.1 82.4-14.4 63.6-8 114.2 20.2 130.4 6.5 3.8 14.1 5.6 22.5 5.6 27.5 0 63.5-19.6 99.9-53.6 36.4 33.8 72.4 53.2 99.9 53.2 8.4 0 16-1.8 22.6-5.6 28.1-16.2 34.4-66.7 19.9-130.1 62-19.1 102.5-49.9 102.5-82.3zm-130.2-66.7c-3.7 12.9-8.3 26.2-13.5 39.5-4.1-8-8.4-16-13.1-24-4.6-8-9.5-15.8-14.4-23.4 14.2 2.1 27.9 4.7 41 7.9zm-45.8 106.5c-7.8 13.5-15.8 26.3-24.1 38.2-14.9 1.3-30 2-45.2 2-15.1 0-30.2-.7-45-1.9-8.3-11.9-16.4-24.6-24.2-38-7.6-13.1-14.5-26.4-20.8-39.8 6.2-13.4 13.2-26.8 20.7-39.9 7.8-13.5 15.8-26.3 24.1-38.2 14.9-1.3 30-2 45.2-2 15.1 0 30.2.7 45 1.9 8.3 11.9 16.4 24.6 24.2 38 7.6 13.1 14.5 26.4 20.8 39.8-6.3 13.4-13.2 26.8-20.7 39.9zm32.3-13c5.4 13.4 10 26.8 13.8 39.8-13.1 3.2-26.9 5.9-41.2 8 4.9-7.7 9.8-15.6 14.4-23.7 4.6-8 8.9-16.1 13-24.1zM421.2 430c-9.3-9.6-18.6-20.3-27.8-32 9 .4 18.2.7 27.5.7 9.4 0 18.7-.2 27.8-.7-9 11.7-18.3 22.4-27.5 32zm-74.4-58.9c-14.2-2.1-27.9-4.7-41-7.9 3.7-12.9 8.3-26.2 13.5-39.5 4.1 8 8.4 16 13.1 24 4.7 8 9.5 15.8 14.4 23.4zM420.7 163c9.3 9.6 18.6 20.3 27.8 32-9-.4-18.2-.7-27.5-.7-9.4 0-18.7.2-27.8.7 9-11.7 18.3-22.4 27.5-32zm-74 58.9c-4.9 7.7-9.8 15.6-14.4 23.7-4.6 8-8.9 16-13 24-5.4-13.4-10-26.8-13.8-39.8 13.1-3.1 26.9-5.8 41.2-7.9zm-90.5 125.2c-35.4-15.1-58.3-34.9-58.3-50.6 0-15.7 22.9-35.6 58.3-50.6 8.6-3.7 18-7 27.7-10.1 5.7 19.6 13.2 40 22.5 60.9-9.2 20.8-16.6 41.1-22.2 60.6-9.9-3.1-19.3-6.5-28-10.2zM310 490c-13.6-7.8-19.5-37.5-14.9-75.7 1.1-9.4 2.9-19.3 5.1-29.4 19.6 4.8 41 8.5 63.5 10.9 13.5 18.5 27.5 35.3 41.6 50-32.6 30.3-63.2 46.9-84 46.9-4.5-.1-8.3-1-11.3-2.7zm237.2-76.2c4.7 38.2-1.1 67.9-14.6 75.8-3 1.8-6.9 2.6-11.5 2.6-20.7 0-51.4-16.5-84-46.6 14-14.7 28-31.4 41.3-49.9 22.6-2.4 44-6.1 63.6-11 2.3 10.1 4.1 19.8 5.2 29.1zm38.5-66.7c-8.6 3.7-18 7-27.7 10.1-5.7-19.6-13.2-40-22.5-60.9 9.2-20.8 16.6-41.1 22.2-60.6 9.9 3.1 19.3 6.5 28.1 10.2 35.4 15.1 58.3 34.9 58.3 50.6-.1 15.7-23 35.6-58.4 50.6zM320.8 78.4z"/>
        <circle cx="420.9" cy="296.5" r="45.7"/>
        <path d="M520.5 78.1z"/>
    </g>
</svg>

<svg xmlns="http://www.w3.org/2000/svg" viewBox="0 0 64 64" width="64" height="64"><linearGradient id="v7rzGpHrOVSLQJBUQmnLYa" x1="32" x2="32" y1="6" y2="58" gradientUnits="userSpaceOnUse" spreadMethod="reflect"><stop offset="0" stop-color="#1a6dff"/><stop offset="1" stop-color="#c822ff"/></linearGradient><path fill="none" stroke="url(#v7rzGpHrOVSLQJBUQmnLYa)" stroke-miterlimit="10" stroke-width="2" d="M32 7A25 25 0 1 0 32 57A25 25 0 1 0 32 7Z"/><linearGradient id="v7rzGpHrOVSLQJBUQmnLYb" x1="32" x2="32" y1="29" y2="35" gradientUnits="userSpaceOnUse" spreadMethod="reflect"><stop offset="0" stop-color="#6dc7ff"/><stop offset="1" stop-color="#e6abff"/></linearGradient><path fill="url(#v7rzGpHrOVSLQJBUQmnLYb)" d="M32 29A3 3 0 1 0 32 35A3 3 0 1 0 32 29Z"/><linearGradient id="v7rzGpHrOVSLQJBUQmnLYc" x1="32" x2="32" y1="6.428" y2="57.75" gradientUnits="userSpaceOnUse" spreadMethod="reflect"><stop offset="0" stop-color="#1a6dff"/><stop offset="1" stop-color="#c822ff"/></linearGradient><path fill="url(#v7rzGpHrOVSLQJBUQmnLYc)" d="M52,32c0-2.863-2.831-5.371-7.324-7.008c0.091-0.522,0.164-1.036,0.217-1.54 c0.458-4.324-0.567-7.442-2.885-8.78c-2.595-1.499-6.281-0.375-10.008,2.64c-3.727-3.015-7.412-4.139-10.009-2.64 c-2.318,1.338-3.343,4.455-2.885,8.78c0.053,0.503,0.126,1.017,0.217,1.54C14.831,26.629,12,29.137,12,32s2.831,5.371,7.324,7.008 c-0.091,0.523-0.164,1.037-0.217,1.541c-0.458,4.324,0.567,7.441,2.885,8.779c0.775,0.447,1.646,0.661,2.587,0.661 c2.212,0,4.806-1.194,7.421-3.309c2.615,2.115,5.21,3.309,7.422,3.309c0.94,0,1.812-0.214,2.587-0.661 c2.318-1.338,3.343-4.455,2.885-8.78c-0.053-0.503-0.126-1.017-0.217-1.54C49.169,37.371,52,34.863,52,32z M41.008,16.404 c1.569,0.905,2.26,3.397,1.896,6.837c-0.039,0.371-0.099,0.754-0.161,1.137c-1.569-0.443-3.285-0.79-5.123-1.024 c-1.319-1.799-2.706-3.381-4.11-4.708C36.557,16.255,39.337,15.438,41.008,16.404z M38.453,35.725 c-0.62,1.073-1.262,2.072-1.915,3.011C35.033,38.906,33.502,39,32,39c-1.502,0-3.034-0.094-4.539-0.264 c-0.653-0.939-1.295-1.938-1.915-3.011c-0.714-1.235-1.343-2.483-1.901-3.724c0.558-1.242,1.188-2.489,1.901-3.725 c0.62-1.073,1.262-2.072,1.915-3.011C28.967,25.094,30.498,25,32,25c1.503,0,3.035,0.094,4.541,0.264 c0.653,0.939,1.294,1.939,1.913,3.011c0.714,1.235,1.343,2.482,1.901,3.724C39.796,33.241,39.167,34.489,38.453,35.725z M41.376,34.5c0.386,1.062,0.708,2.108,0.96,3.127c-0.995,0.279-2.047,0.517-3.136,0.715c0.334-0.526,0.664-1.064,0.984-1.618 C40.611,35.987,41.002,35.244,41.376,34.5z M31.999,44.069c-0.968-0.904-1.947-1.971-2.916-3.171C30.036,40.958,31.004,41,32,41 c0.995,0,1.963-0.042,2.916-0.102C33.947,42.098,32.967,43.165,31.999,44.069z M24.799,38.342c-1.089-0.198-2.14-0.437-3.135-0.715 c0.252-1.019,0.574-2.065,0.96-3.127c0.375,0.744,0.766,1.487,1.191,2.224C24.135,37.279,24.464,37.816,24.799,38.342z M22.623,29.5 c-0.386-1.062-0.708-2.108-0.96-3.127c0.996-0.279,2.047-0.518,3.136-0.715c-0.335,0.526-0.665,1.063-0.985,1.618 C23.389,28.013,22.998,28.756,22.623,29.5z M31.999,19.933c0.971,0.906,1.955,1.965,2.927,3.17C33.97,23.042,32.999,23,32,23 c-0.996,0-1.963,0.042-2.916,0.102C30.052,21.903,31.031,20.836,31.999,19.933z M40.185,27.275c-0.32-0.555-0.65-1.091-0.985-1.618 c1.089,0.198,2.141,0.437,3.136,0.715c-0.252,1.019-0.574,2.065-0.96,3.126C41.002,28.755,40.611,28.013,40.185,27.275z M21.095,23.241c-0.364-3.439,0.327-5.932,1.896-6.837c0.463-0.268,1.011-0.399,1.625-0.399c1.606,0,3.671,0.909,5.876,2.639 c-1.405,1.327-2.793,2.909-4.113,4.71c-1.838,0.234-3.554,0.582-5.123,1.024C21.194,23.995,21.135,23.612,21.095,23.241z M14,32 c0-2.052,2.349-3.794,5.757-5.027c0.412,1.632,0.985,3.321,1.707,5.027c-0.721,1.706-1.295,3.395-1.707,5.027 C16.349,35.794,14,34.052,14,32z M22.991,47.596c-1.568-0.905-2.259-3.396-1.896-6.837c0.039-0.371,0.099-0.754,0.161-1.137 c1.567,0.442,3.282,0.789,5.117,1.023c1.319,1.8,2.707,3.385,4.111,4.712C27.44,47.745,24.662,48.562,22.991,47.596z M42.905,40.759 c0.364,3.439-0.327,5.932-1.896,6.837c-1.673,0.966-4.45,0.15-7.495-2.238c1.404-1.327,2.792-2.912,4.111-4.713 c1.836-0.234,3.551-0.581,5.118-1.024C42.806,40.005,42.865,40.388,42.905,40.759z M44.243,37.027 c-0.412-1.632-0.986-3.321-1.707-5.028c0.721-1.706,1.295-3.395,1.707-5.027C47.65,28.206,50,29.948,50,32 C50,34.052,47.651,35.794,44.243,37.027z"/></svg>